<?xml version="1.0" encoding="utf-8"?>
<!-- Generator: Adobe Illustrator 19.2.1, SVG Export Plug-In . SVG Version: 6.00 Build 0)  -->
<svg version="1.1" id="Layer_1" xmlns="http://www.w3.org/2000/svg" xmlns:xlink="http://www.w3.org/1999/xlink" x="0px" y="0px"
	 viewBox="0 0 56 60" style="enable-background:new 0 0 56 60;" xml:space="preserve">
<style type="text/css">
	.st0{fill:none;}
	.st1{clip-path:url(#SVGID_2_);}
	.st2{fill:none;stroke:#00A7C0;stroke-miterlimit:10;}
	.st3{clip-path:url(#SVGID_4_);}
	.st4{clip-path:url(#SVGID_6_);}
</style>
<title>wavy</title>
<rect y="10" class="st0" width="56" height="40"/>
<g>
	<defs>
		<rect id="SVGID_1_" x="0" y="40" width="56" height="20"/>
	</defs>
	<clipPath id="SVGID_2_">
		<use xlink:href="#SVGID_1_"  style="overflow:visible;"/>
	</clipPath>
	<g class="st1">
		<path class="st2" d="M70,50c0,0-1.9,7.1-14,7.1s-15.7-14-28-14s-15.8,14-28,14s-14.1-7.2-14.1-7.2"/>
	</g>
</g>
<g>
	<defs>
		<rect id="SVGID_3_" x="0" y="20" width="56" height="20"/>
	</defs>
	<clipPath id="SVGID_4_">
		<use xlink:href="#SVGID_3_"  style="overflow:visible;"/>
	</clipPath>
	<g class="st3">
		<path class="st2" d="M70,30c0,0-1.9,7.1-14,7.1s-15.7-14-28-14s-15.8,14-28,14s-14.1-7.2-14.1-7.2"/>
	</g>
</g>
<g>
	<defs>
		<rect id="SVGID_5_" x="0" width="56" height="20"/>
	</defs>
	<clipPath id="SVGID_6_">
		<use xlink:href="#SVGID_5_"  style="overflow:visible;"/>
	</clipPath>
	<g class="st4">
		<path class="st2" d="M70,10c0,0-1.9,7.1-14,7.1s-15.7-14-28-14s-15.8,14-28,14s-14.1-7.2-14.1-7.2"/>
	</g>
</g>
</svg>
