<svg id="Layer_4" data-name="Layer 4" xmlns="http://www.w3.org/2000/svg" viewBox="0 0 355.37 240.15"><title>HSR-Logo-White</title><path d="M1639,592.94h21.94l3.52-28.85c0.36-2.54,1.45-3.64,4-3.64h13.09c2.55,0,3.27,1.09,2.91,3.64l-9.21,75.15c-0.36,2.54-1.21,3.64-3.76,3.64h-13.09c-2.55,0-3.52-1.21-3.15-3.64L1659,609.3h-21.94l-3.76,29.94c-0.36,2.42-1.21,3.64-3.76,3.64h-13.09c-2.55,0-3.52-1.09-3.15-3.64l9.21-75.15c0.36-2.54,1.45-3.64,4-3.64h13.09c2.55,0,3.28,1.09,2.91,3.64Z" transform="translate(-1542.99 -559.49)" style="fill:#fff"/><path d="M1732.93,560.46c2.55,0,3.64,1.21,4,3.64l12.73,75.15c0.36,2.3-.48,3.64-3,3.64h-13.21c-2.54,0-3.51-1.33-3.88-3.64l-1.7-11.64h-20.12l-4.61,11.64c-0.85,2.3-2.06,3.64-4.61,3.64H1686c-2.42,0-3.15-1.33-2.18-3.64l31-75.15c1.09-2.54,2.42-3.64,5-3.64h13.09Zm-8.36,44.85c-1.21-9.33-.73-25.09-0.73-25.33-0.24.85-4.36,18.42-7.15,25.33l-2.67,6.55h11.39Z" transform="translate(-1542.99 -559.49)" style="fill:#fff"/><path d="M1817.54,623.12c-1.21,10.42-8.36,20.73-31.76,20.73-20.61,0-28-8.85-28-18.42,0-.85.12-1.94,0.24-3.28l5.09-41.94c1.21-10.42,8.36-20.73,31.76-20.73,20.48,0,28,8.73,28,18.3,0,0.85-.12,1.94-0.24,3.27l-0.61,4.73c-0.36,2.54-1.21,3.64-3.76,3.64h-12.49c-2.67,0-3.51-1.46-3.15-3.64l0.24-1.33a18.82,18.82,0,0,0,.24-2.3c0-4.36-3.76-6.3-9.33-6.3-5.94,0-10.3,2.3-11,7.88l-4.36,34.79c-0.12,1-.24,1.94-0.24,2.3,0,4.73,4,6.67,9.45,6.67,5.94,0,10.18-2.3,10.91-7.88l0.48-3.88c0.36-2.54,1.46-3.64,4-3.64h12.49c2.79,0,3.15,1.58,2.91,3.64Z" transform="translate(-1542.99 -559.49)" style="fill:#fff"/><path d="M1891.24,639.24c1,1.82.36,3.64-2.18,3.64h-16.6c-2.55,0-3.76-1.82-4.73-3.64l-15.51-29.7h-1.45l-3.64,29.7c-0.24,2.54-1.21,3.64-3.76,3.64h-13.09c-2.55,0-3.52-1.09-3.15-3.64l9.21-75.15c0.36-2.54,1.45-3.64,4-3.64h13.09c2.55,0,3.28,1.09,2.91,3.64L1852.58,595h0.85l22.3-30.91a7.8,7.8,0,0,1,6.18-3.64h14.3c2.55,0,2.67,1.58,1.21,3.64l-27.52,36.85Z" transform="translate(-1542.99 -559.49)" style="fill:#fff"/><path d="M1588.2,679.87v-0.73c0-5-3.39-6.91-8.73-6.91-5.57,0-9.58,2.06-10.3,7.63l-0.12,1.21v0.73a4.38,4.38,0,0,0,3.27,4.48l19.51,6.91c7.88,2.79,13,8.85,13,16.36,0,0.85-.12,1.7-0.24,3l-0.85,7.51c-1.21,10.42-9,20.73-32,20.73-20.73,0-28.73-9-28.73-18.67a18.38,18.38,0,0,1,.24-3l0.85-7.15c0.24-2.55,1.45-3.64,4-3.64h12.6c2.55,0,3.27,1.33,2.91,3.64l-0.61,4.48a14,14,0,0,0-.12,2.18c0,4.73,4.24,6.42,10.06,6.42s10.54-2.06,11.39-7.63l0.24-1.58a10.17,10.17,0,0,0,.12-1.45c0-3.88-5.7-6.06-9.46-7.51l-16.6-6.55a15.18,15.18,0,0,1-9.46-14.06c0-.73.12-1.82,0.24-3l0.73-6.06c1.21-10.42,7.88-20.73,30.54-20.73,20.36,0,27.51,9,27.51,18.3,0,0.48,0,1-.12,2.42l-0.48,4.49c-0.24,2.55-1.45,3.64-4,3.64H1591c-2.3,0-3.15-.85-2.91-3.64Z" transform="translate(-1542.99 -559.49)" style="fill:#fff"/><path d="M1639,689.93h21.94l3.52-28.85c0.36-2.54,1.45-3.64,4-3.64h13.09c2.55,0,3.27,1.09,2.91,3.64l-9.21,75.15c-0.36,2.54-1.21,3.64-3.76,3.64h-13.09c-2.55,0-3.52-1.21-3.15-3.64l3.76-29.94h-21.94l-3.76,29.94c-0.36,2.42-1.21,3.64-3.76,3.64h-13.09c-2.55,0-3.52-1.09-3.15-3.64l9.21-75.15c0.36-2.54,1.45-3.64,4-3.64h13.09c2.55,0,3.28,1.09,2.91,3.64Z" transform="translate(-1542.99 -559.49)" style="fill:#fff"/><path d="M1732.93,657.45c2.55,0,3.64,1.21,4,3.64l12.73,75.15c0.36,2.3-.48,3.64-3,3.64h-13.21c-2.54,0-3.51-1.33-3.88-3.64l-1.7-11.64h-20.12l-4.61,11.64c-0.85,2.3-2.06,3.64-4.61,3.64H1686c-2.43,0-3.15-1.33-2.18-3.64l31-75.15c1.09-2.54,2.42-3.64,5-3.64h13.09Zm-8.36,44.85c-1.21-9.33-.73-25.09-0.73-25.33-0.24.85-4.36,18.42-7.15,25.33l-2.67,6.55h11.39Z" transform="translate(-1542.99 -559.49)" style="fill:#fff"/><path d="M1817.54,720.11c-1.21,10.42-8.36,20.73-31.76,20.73-20.61,0-28-8.85-28-18.42,0-.85.12-1.94,0.24-3.28l5.09-41.94c1.21-10.42,8.36-20.73,31.76-20.73,20.48,0,28,8.73,28,18.3,0,0.85-.12,1.94-0.24,3.27l-0.61,4.73c-0.36,2.54-1.21,3.64-3.76,3.64h-12.49c-2.67,0-3.51-1.46-3.15-3.64l0.24-1.33a18.82,18.82,0,0,0,.24-2.3c0-4.36-3.76-6.3-9.33-6.3-5.94,0-10.3,2.3-11,7.88l-4.36,34.79c-0.12,1-.24,1.94-0.24,2.3,0,4.73,4,6.67,9.45,6.67,5.94,0,10.18-2.3,10.91-7.88l0.48-3.88c0.36-2.54,1.46-3.64,4-3.64h12.48c2.79,0,3.15,1.58,2.91,3.64Z" transform="translate(-1542.99 -559.49)" style="fill:#fff"/><path d="M1891.24,736.23c1,1.82.36,3.64-2.18,3.64h-16.6c-2.54,0-3.76-1.82-4.73-3.64l-15.51-29.7h-1.45l-3.64,29.7c-0.24,2.54-1.21,3.64-3.76,3.64h-13.09c-2.55,0-3.52-1.09-3.15-3.64l9.21-75.15c0.36-2.54,1.45-3.64,4-3.64h13.09c2.55,0,3.28,1.09,2.91,3.64L1852.58,692h0.85l22.3-30.91a7.8,7.8,0,0,1,6.18-3.64h14.3c2.55,0,2.67,1.58,1.21,3.64l-27.51,36.85Z" transform="translate(-1542.99 -559.49)" style="fill:#fff"/><path d="M1628.67,783l4,14.41c0.3,1.13-.65,1.78-1.84,1.78h-6.34c-1.07,0-1.31-.83-1.54-1.78l-3.62-13.1h-4.5l-1.6,13.1c-0.12,1.24-.59,1.78-1.84,1.78H1605c-1,0-1.72-.35-1.54-1.78l4.5-36.75a1.73,1.73,0,0,1,2-1.78h12.27c10.14,0,14.34,4.45,14.34,9.54,0,0.3-.06,1-0.12,1.42l-0.53,4.62C1635.37,777.94,1633.48,781.26,1628.67,783ZM1617,766.86l-1.19,9.42h4.74c3.08,0,5.45-.89,5.87-3.61l0.18-1.24a7.84,7.84,0,0,0,.06-1c0-2.31-1.6-3.56-4.74-3.56H1617Z" transform="translate(-1542.99 -559.49)" style="fill:#fff"/><path d="M1678.09,758.86a1.76,1.76,0,0,1,2,1.78l6.22,36.75a1.32,1.32,0,0,1-1.48,1.78h-6.46a1.75,1.75,0,0,1-1.9-1.78l-0.83-5.69h-9.84l-2.25,5.69a2.22,2.22,0,0,1-2.25,1.78h-6.11c-1.19,0-1.54-.65-1.06-1.78l15.18-36.75a2.38,2.38,0,0,1,2.43-1.78h6.4ZM1674,780.79a102.2,102.2,0,0,1-.35-12.39c-0.12.42-2.13,9-3.5,12.39l-1.31,3.2h5.57Z" transform="translate(-1542.99 -559.49)" style="fill:#fff"/><path d="M1737.24,789.51c-0.59,5.1-4.09,10.13-15.53,10.13-10.08,0-13.69-4.32-13.69-9,0-.42.06-1,0.12-1.6l2.49-20.51c0.59-5.1,4.09-10.14,15.53-10.14,10,0,13.69,4.27,13.69,9,0,0.41-.06.95-0.12,1.6l-0.3,2.31c-0.18,1.24-.59,1.78-1.84,1.78h-6.11a1.35,1.35,0,0,1-1.54-1.78l0.12-.65a8.7,8.7,0,0,0,.12-1.13c0-2.13-1.84-3.08-4.57-3.08-2.9,0-5,1.13-5.39,3.86l-2.14,17c-0.06.48-.12,0.95-0.12,1.13,0,2.31,2,3.26,4.62,3.26,2.9,0,5-1.13,5.33-3.85l0.24-1.9a1.73,1.73,0,0,1,2-1.78h6.1c1.36,0,1.54.77,1.42,1.78Z" transform="translate(-1542.99 -559.49)" style="fill:#fff"/><path d="M1769.47,797.39c-0.18,1.24-.59,1.78-1.84,1.78h-6.4a1.33,1.33,0,0,1-1.54-1.78l4.5-36.75a1.73,1.73,0,0,1,2-1.78h6.4c1.24,0,1.6.53,1.42,1.78Z" transform="translate(-1542.99 -559.49)" style="fill:#fff"/><path d="M1824.47,797.39c-0.18,1.24-.59,1.78-1.84,1.78h-5.57a1.48,1.48,0,0,1-1.6-.83l-7.53-15.77a38.32,38.32,0,0,1-1.9-5.33l-2.49,20.15c-0.18,1.24-.59,1.78-1.84,1.78h-5.81a1.33,1.33,0,0,1-1.54-1.78l4.5-36.75a1.73,1.73,0,0,1,2-1.78h5.57a1.42,1.42,0,0,1,1.48.71l7.94,16.78a30.75,30.75,0,0,1,1.54,4.45l2.43-20.15a1.73,1.73,0,0,1,2-1.78h5.81c1.24,0,1.6.53,1.42,1.78Z" transform="translate(-1542.99 -559.49)" style="fill:#fff"/><path d="M1878.76,777.24c1.42,0,1.72.65,1.6,1.66l-1.3,10.61c-0.65,5.1-4.09,10.13-15.53,10.13-10.08,0-13.69-4.32-13.69-9,0-.42.06-1.07,0.12-1.6l2.49-20.51c0.59-5.1,4.09-10.14,15.53-10.14,10.08,0,13.69,4.33,13.69,9.07,0,0.35-.06.95-0.12,1.6l-0.18,1.6a1.66,1.66,0,0,1-1.9,1.78h-6.11a1.34,1.34,0,0,1-1.48-1.78l0.06-.41a6.24,6.24,0,0,0,.06-1c0-2-1.72-2.9-4.45-2.9s-5.16,1.13-5.51,3.86l-2.14,17.07a10.11,10.11,0,0,0-.12,1.19c0,2.19,1.66,3.14,4.5,3.14,3.2,0,5.16-1.13,5.45-3.85l0.3-2.55h-4.86c-1.24,0-1.72-.53-1.54-1.72l0.59-4.62c0.12-1.24.71-1.66,2-1.66h12.57Z" transform="translate(-1542.99 -559.49)" style="fill:#fff"/></svg>